<?xml version="1.0" standalone="no"?>
<!DOCTYPE svg PUBLIC "-//W3C//DTD SVG 20010904//EN"
 "http://www.w3.org/TR/2001/REC-SVG-20010904/DTD/svg10.dtd">
<svg version="1.0" xmlns="http://www.w3.org/2000/svg"
 width="720.000000pt" height="720.000000pt" viewBox="0 0 720.000000 720.000000"
 preserveAspectRatio="xMidYMid meet">
<metadata>
Created by potrace 1.11, written by Peter Selinger 2001-2013
</metadata>
<g transform="translate(0.000000,720.000000) scale(0.100000,-0.100000)"
fill="#000000" stroke="none">
<path d="M6086 5449 c-27 -11 -88 -29 -135 -41 -78 -19 -114 -21 -371 -20
-157 1 -316 4 -355 7 -38 3 -160 7 -270 9 -215 5 -348 -9 -524 -54 -341 -87
-603 -286 -756 -576 l-37 -70 -57 2 c-30 1 -61 -2 -68 -8 -26 -21 -12 2 32 53
70 82 110 188 136 364 6 39 12 81 14 94 19 112 19 110 -8 120 -27 10 -54 5
-119 -23 -95 -41 -233 -57 -503 -61 -143 -2 -343 1 -445 6 -366 20 -568 16
-740 -13 -407 -68 -703 -221 -923 -476 -38 -44 -124 -178 -133 -205 -4 -12
-10 -24 -14 -27 -17 -13 -82 -217 -95 -300 -3 -19 -9 -58 -14 -86 -10 -68 -5
-297 8 -356 26 -112 66 -194 124 -249 69 -67 234 -112 379 -105 107 5 112 17
65 131 -14 33 -27 74 -30 90 -2 17 -7 38 -12 48 -10 23 -11 356 -2 417 15 95
20 117 43 188 23 74 73 173 101 200 8 8 22 26 30 39 25 38 131 109 213 141 81
32 154 51 238 61 l53 7 -6 -55 c-9 -77 -15 -120 -19 -150 -3 -14 -8 -51 -11
-82 -6 -51 -9 -56 -29 -53 -11 2 -15 2 -9 -2 17 -7 -8 -34 -32 -34 -9 0 -14
-3 -12 -7 2 -5 -4 -16 -15 -25 -10 -10 -18 -16 -18 -13 0 3 -6 0 -14 -7 -8 -7
-12 -16 -9 -20 2 -5 -1 -8 -7 -8 -17 0 -42 -28 -35 -40 4 -6 -1 -7 -12 -3 -10
3 -15 3 -11 -1 3 -4 -3 -17 -13 -29 -11 -12 -26 -29 -34 -38 -8 -9 -15 -19
-15 -23 0 -4 -9 -16 -20 -28 -11 -12 -20 -28 -20 -35 0 -9 -5 -11 -12 -7 -7 4
-10 3 -5 -1 4 -5 0 -19 -9 -33 -8 -13 -13 -26 -10 -29 9 -10 -15 -33 -27 -26
-6 3 -7 1 -3 -6 4 -6 2 -18 -4 -26 -6 -8 -9 -19 -5 -25 3 -5 -2 -10 -12 -10
-15 0 -16 -2 -3 -10 12 -8 12 -10 1 -10 -8 0 -11 -7 -8 -20 3 -11 2 -18 -2
-16 -4 3 -13 -4 -20 -16 -7 -11 -8 -17 -2 -13 6 3 11 1 11 -4 0 -6 -4 -11 -10
-11 -5 0 -7 -7 -4 -15 4 -8 2 -15 -4 -15 -6 0 -9 -11 -7 -25 1 -14 -2 -25 -6
-25 -5 0 -7 -13 -5 -30 2 -18 -1 -27 -7 -23 -6 4 -8 -4 -5 -21 3 -16 0 -33 -9
-42 -8 -8 -10 -14 -4 -14 13 0 10 -22 -4 -32 -6 -5 -5 -8 3 -8 8 0 10 -5 5
-12 -13 -22 -14 -50 -1 -42 7 5 8 3 2 -7 -13 -22 -14 -42 -2 -56 8 -11 7 -12
-8 -6 -15 5 -17 4 -8 -8 5 -8 9 -25 8 -39 -1 -14 3 -28 10 -32 8 -6 7 -8 -2
-8 -9 0 -10 -5 -2 -19 7 -14 7 -22 0 -26 -8 -5 -7 -12 2 -23 11 -13 11 -15 -2
-8 -11 7 -11 4 2 -9 12 -13 14 -24 7 -42 -6 -18 -6 -22 3 -17 8 5 9 2 5 -9 -4
-10 -1 -17 5 -17 6 0 8 -3 5 -7 -4 -3 1 -15 10 -25 16 -18 16 -19 -3 -13 -18
6 -18 6 -1 -8 9 -8 17 -22 17 -31 0 -9 5 -16 11 -16 5 0 8 -4 4 -10 -3 -5 9
-24 27 -41 18 -18 26 -29 18 -25 -8 4 -4 -2 10 -13 14 -11 29 -21 33 -21 5 0
5 -4 2 -10 -3 -5 0 -7 8 -4 8 3 18 0 23 -7 5 -8 3 -10 -6 -4 -8 5 -11 4 -6 -3
4 -6 13 -9 21 -5 8 3 15 0 15 -5 0 -6 12 -12 28 -14 25 -3 27 -6 27 -53 -1
-27 -4 -77 -8 -110 -9 -68 -36 -267 -42 -305 -2 -14 -6 -46 -9 -72 -4 -27 -8
-69 -12 -95 -3 -27 -7 -59 -9 -73 -2 -14 -7 -45 -10 -70 -3 -25 -8 -56 -10
-70 -2 -14 -7 -52 -11 -85 -3 -33 -8 -67 -9 -75 -2 -9 -6 -43 -10 -75 -4 -33
-9 -71 -11 -85 -15 -97 -15 -136 0 -149 24 -20 116 -18 232 3 37 7 100 16 144
21 25 3 56 7 70 10 14 3 45 7 70 10 58 6 142 16 155 18 30 5 37 28 51 157 3
36 8 67 9 70 2 3 6 37 10 75 4 39 9 73 11 76 1 3 6 38 9 77 3 40 8 81 10 91 2
10 6 42 10 72 3 30 8 65 10 79 2 14 6 50 10 80 3 30 8 66 10 80 2 14 7 43 9
65 3 22 10 78 16 125 6 47 13 103 16 125 2 22 6 56 9 75 3 19 7 53 9 75 3 22
10 78 17 125 6 47 13 99 15 115 2 17 6 50 10 75 3 25 7 58 9 75 2 16 5 48 9
70 3 22 8 65 12 95 3 30 8 69 10 85 19 148 27 206 30 240 2 22 9 76 15 120 6
44 13 94 15 110 9 76 16 102 27 102 7 0 13 -9 13 -19 0 -10 -4 -18 -9 -18 -4
0 -5 -5 -2 -10 4 -6 1 -18 -7 -27 -7 -9 -8 -14 -2 -10 8 4 11 -2 10 -17 0 -13
-4 -22 -7 -20 -4 2 -6 -13 -5 -34 1 -20 -2 -40 -8 -44 -5 -3 -10 -18 -11 -32
0 -20 3 -25 15 -21 13 5 13 4 0 -7 -11 -9 -15 -31 -15 -70 0 -31 -4 -54 -9
-50 -5 3 -7 -2 -3 -11 3 -10 3 -17 -2 -17 -9 0 -8 -31 3 -48 4 -7 1 -23 -8
-37 -12 -19 -13 -25 -4 -25 10 0 10 -2 1 -8 -7 -4 -11 -18 -8 -30 2 -12 0 -22
-5 -22 -10 0 -8 -19 4 -39 7 -10 6 -12 -4 -6 -10 6 -12 4 -7 -8 4 -10 1 -17
-6 -17 -8 0 -6 -4 3 -10 9 -6 11 -10 3 -10 -7 0 -10 -7 -7 -15 4 -8 1 -22 -5
-29 -9 -10 -9 -16 -1 -21 7 -4 8 -11 2 -18 -5 -7 -8 -22 -7 -34 1 -13 -3 -23
-8 -23 -5 0 -4 -7 3 -15 7 -8 8 -15 3 -15 -10 0 -13 -21 -16 -122 -1 -31 -5
-54 -8 -52 -4 2 -9 -3 -13 -11 -3 -8 -2 -15 3 -15 10 0 8 -31 -3 -49 -5 -7 -8
-31 -8 -52 1 -22 -3 -37 -7 -35 -11 7 -8 -38 4 -46 7 -5 7 -8 0 -8 -5 0 -11
-21 -13 -47 -1 -26 -8 -51 -15 -55 -9 -6 -9 -8 1 -8 10 0 10 -5 2 -20 -8 -15
-8 -20 1 -20 7 0 4 -9 -7 -22 -10 -12 -14 -19 -8 -15 7 4 11 -4 10 -22 -1 -16
-5 -26 -10 -23 -5 3 -7 -2 -3 -11 4 -10 1 -17 -6 -17 -8 0 -8 -3 2 -9 8 -5 10
-14 5 -22 -4 -8 -9 -27 -11 -44 -7 -80 -10 -106 -16 -112 -4 -3 -1 -13 6 -21
6 -9 7 -13 1 -9 -10 6 -16 -22 -15 -78 0 -11 -5 -23 -12 -27 -9 -6 -9 -8 1 -8
8 0 10 -5 6 -12 -5 -7 -10 -33 -12 -58 -2 -25 -8 -50 -13 -57 -7 -7 -6 -14 1
-18 6 -3 8 -11 4 -16 -6 -11 -15 -80 -18 -136 0 -17 -4 -29 -8 -27 -5 3 -8 0
-8 -5 0 -6 6 -11 13 -11 8 0 8 -3 2 -8 -6 -4 -11 -20 -12 -37 -1 -40 -6 -59
-18 -67 -6 -5 -6 -8 2 -8 12 0 12 -24 0 -36 -12 -12 -8 -26 6 -18 9 6 9 5 0
-8 -7 -8 -10 -18 -6 -21 3 -4 2 -7 -3 -7 -6 0 -9 -20 -9 -45 1 -30 -2 -42 -9
-38 -6 4 -5 0 2 -9 10 -13 10 -19 -3 -32 -9 -9 -12 -16 -6 -16 6 0 11 -5 11
-11 0 -5 -3 -8 -8 -6 -4 3 -7 -8 -8 -24 -1 -18 3 -26 10 -22 6 4 4 -2 -5 -13
-9 -12 -15 -37 -15 -66 1 -27 -2 -48 -6 -48 -3 0 -4 -10 0 -22 3 -12 1 -19 -5
-15 -5 3 -10 0 -10 -8 0 -8 4 -15 9 -15 5 0 4 -8 -1 -18 -7 -13 -6 -23 2 -32
9 -10 9 -11 -1 -6 -12 7 -14 -5 -15 -71 0 -13 -5 -23 -11 -23 -6 0 -4 -5 4
-10 8 -5 10 -10 4 -10 -6 0 -10 -13 -9 -30 1 -16 -1 -30 -4 -30 -4 0 -6 -12
-5 -27 1 -16 3 -38 3 -51 1 -19 5 -22 21 -17 13 4 20 2 20 -7 0 -11 2 -11 9 0
4 8 11 13 15 13 30 -4 46 0 40 12 -5 7 -1 7 10 -2 15 -13 19 -13 27 0 5 8 9 9
9 4 0 -6 9 -11 19 -11 11 0 17 5 14 10 -4 5 3 7 15 4 13 -4 22 -1 22 5 0 8 3
7 9 -1 6 -11 10 -10 15 3 4 13 10 14 19 7 8 -7 18 -7 27 -2 9 5 19 5 26 -1 8
-7 15 -6 20 2 5 8 3 9 -6 4 -9 -5 -11 -4 -6 4 6 9 11 9 22 0 11 -9 14 -8 14 2
0 10 3 10 12 1 9 -9 16 -8 29 4 11 10 19 12 23 5 4 -6 13 -8 21 -5 8 4 13 9
11 13 -2 3 15 5 37 4 23 0 45 4 49 10 5 8 11 9 16 2 4 -5 17 -10 29 -11 19 0
21 2 10 15 -9 12 -9 13 1 7 21 -13 49 3 48 27 -1 12 2 28 7 35 5 6 6 12 1 12
-5 0 -2 5 6 10 11 7 11 10 2 10 -9 0 -10 5 -3 18 7 13 6 23 -2 32 -9 10 -9 11
2 5 11 -6 13 -2 7 19 -5 21 -4 26 6 20 10 -6 9 -3 -1 9 -7 9 -9 17 -4 17 5 0
9 16 10 36 0 20 7 40 14 45 11 7 9 9 -6 9 -15 0 -17 2 -6 9 7 5 10 14 7 20 -4
6 -1 11 6 11 10 0 10 2 -1 9 -9 6 -10 10 -2 16 9 5 9 11 -1 23 -7 9 -8 13 -2
9 7 -4 14 2 17 13 3 11 1 18 -4 14 -5 -3 -9 -1 -9 5 0 5 4 12 9 16 6 3 8 15 6
27 -3 12 1 28 7 36 9 10 8 16 -3 23 -8 5 -9 9 -4 9 6 0 11 10 12 23 5 78 7 86
17 80 7 -4 6 -1 -1 8 -8 9 -9 20 -3 29 14 21 12 32 -2 24 -9 -6 -9 -3 0 9 8 9
11 21 7 27 -3 5 -2 10 3 10 5 0 7 12 4 26 -4 21 -2 25 9 19 11 -6 11 -5 2 5
-8 9 -9 19 -2 32 7 13 6 18 -3 18 -9 0 -10 3 -2 8 6 4 10 15 8 24 -1 10 3 18
9 18 7 0 5 5 -3 10 -8 5 -10 10 -3 10 6 0 9 8 6 19 -3 10 0 22 6 25 7 4 7 15
1 31 -6 17 -5 27 5 35 11 9 12 17 4 31 -6 13 -6 19 1 19 5 0 10 5 10 11 0 6
-6 7 -12 2 -7 -4 -6 4 4 19 11 17 13 29 6 36 -6 6 -6 12 1 16 6 4 11 12 11 17
0 6 -6 7 -12 3 -9 -6 -9 -3 1 9 7 9 11 24 7 32 -3 8 -1 15 3 15 5 0 7 10 3 22
-3 12 -1 19 5 15 5 -3 10 0 10 8 0 8 -5 12 -10 8 -5 -3 -4 4 2 16 9 16 9 21
-1 21 -9 0 -9 3 -2 8 6 4 11 19 11 35 2 45 3 48 15 41 7 -5 8 -3 2 7 -12 20
-16 51 -5 45 4 -3 7 8 5 24 -2 19 1 30 9 30 8 0 7 4 -3 10 -12 8 -13 11 -1 19
9 6 10 11 2 15 -8 5 -6 16 5 38 9 18 11 27 4 23 -9 -6 -9 -2 -1 13 8 15 8 22
-2 25 -9 4 -9 6 1 6 7 1 10 6 7 11 -3 6 -1 10 6 10 8 0 8 4 -1 15 -8 9 -9 15
-2 15 6 0 9 10 7 21 -2 12 0 31 6 41 9 16 8 19 -3 12 -10 -6 -11 -5 -1 7 9 12
10 18 1 27 -8 8 -7 13 6 18 14 5 15 9 4 15 -11 7 -11 9 0 9 9 0 11 7 7 20 -4
12 -1 27 5 35 9 11 9 15 1 15 -9 0 -9 5 -1 20 6 11 8 25 5 30 -3 5 -1 12 5 15
7 5 8 11 1 19 -6 7 -6 18 -1 25 4 8 6 20 3 28 -3 7 0 13 6 13 6 0 11 5 11 11
0 5 -3 8 -7 6 -5 -3 -8 5 -8 18 0 13 4 21 8 18 4 -2 6 7 3 21 -3 14 -1 26 3
26 5 0 7 12 5 27 -1 15 3 31 9 35 9 6 9 8 -1 8 -9 0 -10 5 -4 18 5 9 8 27 7
40 -1 12 2 22 7 22 5 0 4 10 -3 21 -7 13 -7 19 -1 15 6 -4 11 2 11 11 -1 66 5
103 15 103 6 0 4 5 -4 10 -8 5 -10 10 -4 10 7 0 10 13 8 31 -2 16 0 28 4 25 4
-2 8 7 9 21 1 19 -1 22 -8 12 -5 -8 -9 -9 -9 -4 0 6 5 16 12 23 7 7 9 12 6 12
-4 0 -3 13 2 29 5 19 4 33 -3 41 -9 10 -9 11 2 5 11 -6 13 -2 7 19 -4 15 -3
25 2 22 11 -6 9 25 -3 43 -5 10 -4 12 3 7 11 -7 18 41 13 82 -1 6 4 12 11 12
9 0 9 3 -2 10 -11 7 -11 10 -2 10 7 0 12 6 11 13 -3 22 1 40 7 34 4 -3 16 -2
27 4 15 9 18 8 12 -2 -6 -9 -2 -11 13 -7 12 4 22 2 22 -3 0 -5 5 -9 11 -9 5 0
7 4 4 10 -3 6 1 7 9 4 9 -3 13 -11 9 -17 -4 -6 -1 -7 8 -1 19 12 39 14 39 4 0
-10 20 -8 39 4 11 7 13 5 8 -8 -6 -14 -3 -15 13 -6 14 7 20 7 20 0 0 -5 5 -10
11 -10 5 0 7 4 4 10 -3 6 1 7 9 4 9 -3 13 -10 10 -15 -3 -5 2 -6 10 -3 9 3 13
11 9 18 -4 6 1 5 10 -3 9 -7 17 -10 17 -5 0 5 6 0 12 -10 6 -11 13 -45 15 -75
5 -67 43 -184 75 -233 31 -46 95 -95 160 -120 40 -16 82 -22 169 -25 151 -4
154 -2 116 105 -15 43 -29 86 -31 97 -21 114 -25 271 -7 288 11 9 13 9 7 0 -4
-7 -2 -13 3 -13 6 0 11 7 11 15 0 8 6 14 13 13 6 -2 11 3 9 10 -1 6 1 11 5 10
8 -3 51 36 56 50 1 4 5 6 10 4 4 -1 6 1 5 5 -1 5 6 25 15 47 9 21 17 44 17 51
0 7 7 18 15 25 12 10 13 16 4 26 -9 11 -8 14 1 14 7 0 10 7 6 15 -3 8 -2 15 3
15 5 0 7 11 6 25 -2 14 0 25 4 25 4 0 7 18 5 40 -1 22 2 38 6 35 5 -3 7 6 4
20 -2 14 -1 25 3 25 5 0 8 17 7 38 0 20 3 42 8 48 5 7 6 25 3 42 -6 35 0 40
81 81 61 30 203 71 247 71 23 0 24 -2 17 -47 -5 -27 -11 -77 -14 -112 -4 -36
-9 -81 -13 -100 -3 -20 -6 -41 -6 -48 0 -7 -4 -10 -8 -7 -5 2 -15 -8 -24 -23
-9 -15 -13 -19 -10 -8 5 17 3 17 -17 -5 -13 -13 -22 -29 -20 -34 2 -4 -5 -6
-14 -2 -11 4 -15 2 -11 -8 4 -9 -1 -17 -12 -21 -10 -3 -27 -16 -37 -28 l-19
-22 25 20 25 20 -19 -22 c-11 -13 -26 -23 -35 -23 -14 0 -14 -2 -1 -10 13 -9
7 -14 -12 -11 -8 1 -12 -15 -9 -31 0 -5 -6 -8 -15 -8 -8 0 -12 -5 -9 -10 3 -6
-1 -13 -9 -16 -9 -3 -13 -10 -10 -15 3 -5 -3 -9 -13 -9 -13 0 -15 -2 -5 -9 10
-6 10 -10 -3 -21 -9 -7 -14 -19 -11 -26 3 -8 2 -13 -2 -11 -4 1 -7 0 -7 -3 0
-3 -13 -27 -29 -54 -16 -27 -22 -45 -15 -41 8 5 6 -1 -3 -12 -10 -11 -18 -26
-18 -34 0 -8 -6 -21 -12 -28 -11 -11 -10 -13 0 -7 8 5 6 -5 -6 -26 -10 -18
-17 -45 -17 -60 1 -16 -3 -28 -8 -28 -5 0 -7 -7 -4 -15 4 -8 2 -17 -3 -20 -6
-4 -6 -14 1 -27 8 -15 8 -19 0 -14 -7 5 -11 -7 -11 -34 0 -30 -3 -39 -12 -34
-10 6 -10 5 -1 -7 13 -16 12 -36 -1 -58 -7 -11 -6 -12 5 -6 12 8 12 6 0 -8 -7
-9 -9 -17 -4 -17 5 0 10 -7 10 -15 0 -8 -4 -15 -9 -15 -5 0 -6 -6 -1 -12 11
-19 10 -52 -2 -60 -7 -5 -6 -8 1 -8 7 0 11 -14 10 -35 -1 -19 1 -35 4 -35 4 0
5 -14 4 -30 -1 -17 2 -32 7 -35 4 -3 6 -12 3 -19 -3 -7 2 -18 10 -25 12 -10
13 -18 4 -35 -6 -11 -7 -18 -3 -14 10 10 33 -14 28 -29 -3 -7 1 -13 8 -13 7 0
10 -3 6 -6 -8 -8 25 -44 35 -38 4 3 5 -3 1 -12 -4 -12 -3 -15 5 -10 7 4 12 1
12 -9 0 -9 5 -13 10 -10 6 3 10 1 10 -5 0 -6 5 -8 10 -5 6 3 10 -1 10 -10 0
-9 5 -13 11 -10 5 4 19 -1 29 -10 10 -9 24 -14 30 -10 7 4 9 -3 6 -22 -3 -15
-8 -53 -11 -83 -3 -30 -7 -71 -10 -90 -3 -19 -12 -93 -21 -165 -8 -71 -17
-141 -19 -154 -3 -14 -7 -52 -10 -85 -6 -58 -12 -111 -20 -166 -6 -40 -15
-122 -20 -169 -3 -24 -7 -62 -10 -85 -3 -23 -7 -57 -10 -76 -3 -19 -7 -54 -10
-77 -5 -36 -3 -44 15 -53 34 -18 84 -17 220 5 14 2 46 6 72 9 26 3 64 9 85 12
45 7 59 9 138 19 79 10 104 20 115 47 8 21 9 19 7 -9 0 -18 -5 -33 -10 -33 -5
0 -4 -7 3 -15 9 -11 10 -15 1 -15 -8 0 -10 -8 -6 -20 4 -12 2 -20 -5 -20 -7 0
-8 -6 0 -19 6 -12 6 -22 1 -25 -5 -3 -8 -19 -7 -36 1 -16 -1 -30 -6 -30 -4 0
-5 -6 -2 -14 3 -8 1 -23 -5 -33 -5 -11 -6 -25 -1 -33 5 -8 5 -19 1 -25 -5 -5
-9 -17 -9 -25 -4 -63 -9 -98 -16 -108 -4 -7 -2 -12 4 -12 6 0 4 -12 -6 -31 -8
-17 -11 -28 -6 -25 6 4 13 2 17 -4 3 -5 1 -10 -6 -10 -7 0 -10 -3 -6 -6 9 -10
67 -11 67 -1 0 4 5 5 10 2 6 -4 18 -1 27 7 14 11 16 11 11 -3 -6 -15 -4 -15
23 -2 16 8 47 14 69 15 23 0 40 5 40 12 0 6 5 4 10 -4 9 -13 10 -13 10 0 0 13
1 13 10 0 6 -10 10 -11 10 -3 0 7 10 13 23 13 59 1 67 2 72 9 2 5 16 7 30 6
14 -2 25 1 25 7 0 6 6 5 15 -2 12 -10 15 -10 15 1 0 11 2 11 10 -1 7 -12 10
-12 10 -1 0 9 8 11 24 7 14 -3 28 -1 31 4 4 6 11 7 17 4 7 -5 9 -1 5 9 -3 9
-1 17 5 19 6 2 11 18 10 36 0 18 4 32 10 32 7 0 7 4 -1 13 -8 10 -7 17 1 25 9
9 9 12 -1 12 -9 0 -10 4 -4 13 11 12 12 24 14 89 1 25 5 35 13 31 7 -4 6 -1
-1 9 -7 8 -9 18 -5 22 4 4 8 22 9 39 6 91 9 113 16 125 5 7 3 12 -5 12 -8 0
-9 3 -3 8 6 4 11 21 12 38 2 48 10 91 19 105 5 8 3 10 -7 4 -11 -7 -12 -6 -3
6 6 8 10 29 9 47 0 17 2 32 6 32 3 0 5 12 3 27 -1 15 2 36 8 46 8 15 7 18 -4
11 -10 -6 -11 -5 -2 7 5 8 10 29 10 47 -1 17 2 32 6 32 3 0 4 9 1 19 -3 10 1
29 7 41 8 15 8 20 1 16 -6 -4 -11 -3 -11 3 0 5 4 12 9 16 5 3 8 17 5 30 -3 16
0 25 8 25 9 0 8 3 -2 10 -8 5 -10 10 -4 10 6 0 10 16 9 35 -1 20 1 37 4 39 4
3 6 27 6 55 0 28 4 51 9 51 4 0 2 8 -5 17 -12 14 -12 16 0 8 11 -6 13 -2 9 19
-3 15 -1 26 6 26 6 0 5 4 -3 9 -9 6 -10 11 -2 15 6 4 9 18 7 32 -3 13 0 24 6
24 6 0 6 6 -2 15 -7 9 -8 15 -2 15 6 0 9 8 7 18 -1 9 0 21 3 27 3 5 7 32 9 60
6 93 9 120 14 130 3 6 5 27 4 48 -1 20 1 37 5 37 4 0 6 12 4 27 -1 15 2 33 8
40 7 9 7 13 -2 13 -8 0 -9 4 -3 13 5 6 9 29 9 49 -1 21 2 38 5 38 3 0 5 17 5
38 -1 20 3 43 9 51 8 12 7 13 -5 6 -12 -7 -13 -6 -3 7 7 8 11 29 9 46 -2 18 0
32 4 32 4 0 6 14 5 30 -1 17 2 30 9 30 6 0 4 5 -4 10 -8 5 -10 10 -3 10 6 0
10 8 9 18 -2 9 2 20 8 24 8 6 8 8 -1 8 -8 0 -9 9 -4 28 4 15 6 33 4 40 -3 6 1
12 9 12 10 0 9 3 -2 10 -11 7 -11 10 -2 10 9 0 10 5 2 19 -6 12 -6 22 -1 26 6
3 10 13 10 23 -1 32 9 90 16 103 6 8 4 10 -5 4 -9 -6 -11 -4 -4 6 8 14 11 32
17 116 2 24 6 45 9 48 3 3 4 19 2 35 -2 17 1 30 6 30 5 0 7 6 4 14 -7 17 12
30 22 15 4 -8 9 -7 16 2 8 11 11 11 15 1 4 -10 8 -10 21 0 12 10 14 10 8 1 -5
-10 4 -13 33 -13 26 0 41 -5 41 -12 0 -9 4 -8 10 2 9 13 10 13 10 0 0 -13 1
-13 10 0 8 12 10 12 10 1 0 -11 3 -11 17 0 11 10 14 10 9 2 -7 -12 20 -16 107
-16 9 0 17 -4 17 -10 0 -5 5 -5 13 2 8 6 17 8 20 5 3 -4 20 -8 37 -9 17 -1 34
-5 37 -8 3 -4 14 -2 24 4 14 7 19 6 19 -3 0 -9 3 -9 10 2 5 8 10 10 10 5 0 -6
9 -11 20 -11 11 0 20 5 20 11 0 5 5 3 10 -5 5 -8 10 -10 10 -4 0 6 13 9 31 6
20 -3 30 -1 26 6 -9 13 26 10 35 -3 5 -6 8 -5 8 3 0 7 5 10 10 7 6 -3 10 -1
10 5 0 6 5 8 10 5 6 -3 10 -2 10 3 0 9 37 25 52 23 5 -1 7 2 5 7 -1 4 10 20
25 36 14 16 34 47 44 70 10 23 21 43 24 46 3 3 6 14 7 25 3 26 11 60 14 60 1
0 2 12 3 27 1 15 5 30 8 33 4 4 4 13 1 21 -3 8 1 14 8 14 11 0 11 3 -1 10 -8
5 -10 10 -4 10 6 0 10 15 9 35 -1 19 2 35 6 35 4 0 6 10 4 22 -3 12 1 26 8 30
9 6 9 8 -1 8 -8 0 -10 5 -5 12 11 19 13 69 2 63 -5 -4 -9 -2 -9 4 0 12 -32 3
-41 -12 -4 -5 -21 -10 -40 -12 -21 -1 -35 -9 -40 -21 -4 -11 -8 -14 -8 -9 -1
6 -12 10 -25 10 -13 0 -22 -3 -20 -6 2 -4 -3 -9 -11 -13 -8 -3 -15 0 -15 7 0
8 -4 7 -10 -3 -5 -8 -12 -11 -16 -7 -4 4 -13 2 -21 -4 -10 -9 -13 -8 -13 1 0
9 -4 9 -12 3 -7 -6 -29 -10 -48 -10 -19 -1 -44 -4 -54 -9 -14 -5 -17 -4 -12 4
4 7 2 12 -3 12 -6 0 -11 -4 -11 -9 0 -5 -8 -8 -17 -6 -10 1 -23 -2 -30 -7 -7
-6 -14 -5 -18 2 -5 8 -11 7 -23 -2 -13 -11 -14 -11 -7 2 8 13 7 13 -8 1 -14
-11 -17 -11 -17 0 0 12 -2 12 -9 0 -7 -11 -9 -11 -14 0 -5 12 -6 12 -6 0 -1
-11 -4 -11 -16 -1 -8 7 -15 8 -15 3 0 -5 -7 -10 -15 -10 -8 0 -15 5 -15 11 0
7 -3 7 -8 1 -4 -5 -13 -11 -20 -13 -10 -2 -10 2 0 18 7 11 16 20 19 20 14 0
68 97 88 157 19 56 46 201 56 297 3 21 7 47 11 58 15 48 -38 60 -120 27z m541
-576 c0 -6 -5 -9 -11 -6 -6 4 -5 0 1 -9 7 -8 10 -18 6 -22 -7 -6 -8 -17 -14
-83 -2 -18 -8 -33 -14 -33 -5 0 -4 -4 3 -9 10 -6 10 -10 -2 -20 -12 -10 -13
-18 -5 -32 6 -12 6 -19 0 -19 -5 0 -13 -21 -17 -46 -3 -25 -13 -48 -20 -51 -8
-3 -12 -9 -9 -13 3 -5 -3 -13 -12 -19 -10 -6 -15 -11 -10 -11 11 0 -31 -40
-43 -40 -6 0 -13 -7 -16 -15 -4 -8 -10 -13 -14 -10 -5 3 -11 1 -15 -4 -3 -5
-14 -8 -25 -6 -11 2 -20 0 -20 -5 0 -5 -12 -7 -26 -4 -18 3 -23 1 -18 -7 5 -8
3 -9 -7 -3 -8 4 -23 9 -34 9 -11 0 -26 4 -34 9 -10 6 -12 6 -7 -3 6 -8 0 -11
-18 -9 -14 2 -28 7 -32 11 -4 4 -13 2 -20 -4 -8 -7 -14 -7 -19 1 -5 8 -11 8
-21 -1 -8 -6 -14 -8 -14 -3 0 5 -12 10 -27 11 -82 5 -93 7 -93 17 0 7 -3 7 -8
1 -10 -14 -32 -17 -32 -4 0 8 -4 8 -14 0 -9 -8 -16 -8 -20 -2 -4 5 -15 10 -26
10 -11 1 -29 1 -40 2 -12 0 -18 5 -14 11 4 6 -2 6 -15 -1 -12 -7 -21 -8 -21
-2 0 5 -8 8 -17 7 -10 -2 -32 0 -50 5 -18 4 -33 3 -33 -2 0 -4 -7 -5 -17 -2
-11 4 -14 3 -9 -5 4 -6 2 -21 -4 -32 -8 -15 -8 -20 1 -20 8 0 8 -4 2 -12 -9
-12 -13 -40 -17 -128 -1 -20 -6 -41 -10 -48 -4 -7 -5 -19 -2 -27 3 -8 0 -15
-7 -16 -9 0 -9 -2 0 -6 9 -3 10 -10 4 -21 -5 -9 -7 -27 -5 -39 2 -14 -1 -23
-9 -23 -8 0 -7 -4 3 -10 8 -5 10 -10 4 -10 -6 0 -11 -12 -12 -27 -6 -93 -9
-120 -16 -131 -4 -7 -2 -12 6 -12 8 0 9 -3 2 -8 -5 -4 -10 -20 -9 -37 1 -16
-1 -34 -4 -40 -3 -5 -6 -17 -6 -25 0 -8 -4 -21 -8 -27 -5 -8 -4 -13 3 -13 6 0
8 -5 4 -12 -4 -7 -9 -26 -10 -43 -1 -16 -3 -30 -4 -30 -1 0 -3 -12 -5 -28 -3
-19 0 -25 8 -20 7 4 6 -1 -2 -10 -18 -22 -24 -80 -7 -70 7 4 6 1 -1 -9 -7 -8
-10 -18 -6 -21 3 -4 0 -7 -8 -7 -11 0 -11 -2 1 -10 8 -5 10 -10 5 -10 -6 0
-11 -15 -12 -32 -3 -50 -10 -123 -13 -123 -1 0 -3 -13 -3 -30 -1 -16 -6 -36
-11 -44 -7 -11 -6 -12 5 -6 11 7 12 6 3 -6 -5 -8 -10 -37 -10 -66 1 -28 -2
-49 -7 -46 -4 2 -5 -6 -3 -19 2 -13 -1 -28 -6 -35 -6 -7 -5 -20 2 -34 9 -17 9
-20 0 -14 -9 6 -11 0 -8 -24 2 -17 1 -31 -3 -31 -4 0 -6 -12 -5 -27 2 -16 -2
-31 -8 -35 -8 -5 -7 -8 2 -8 9 0 10 -5 4 -17 -5 -10 -8 -28 -7 -40 1 -13 -1
-23 -5 -23 -4 0 -4 -14 -2 -31 3 -18 1 -29 -4 -26 -5 3 -8 -21 -8 -54 1 -32
-2 -59 -5 -59 -4 0 -6 -18 -5 -40 1 -22 -1 -40 -5 -40 -3 0 -6 -21 -7 -48 -1
-59 -7 -93 -18 -111 -6 -10 -5 -12 2 -7 7 4 12 3 12 -3 0 -5 -4 -12 -8 -15 -5
-3 -8 -25 -7 -50 0 -26 -4 -46 -10 -46 -5 0 -3 -5 5 -10 10 -7 11 -10 2 -10
-8 0 -11 -9 -8 -25 3 -13 0 -28 -6 -31 -6 -4 -5 -10 3 -15 9 -6 10 -9 2 -9 -6
0 -10 -11 -8 -25 1 -14 -1 -25 -4 -25 -3 0 -7 -21 -8 -48 -1 -26 -5 -65 -8
-87 -3 -22 -6 -55 -7 -72 -1 -18 -6 -33 -11 -33 -5 0 -4 -7 3 -15 7 -8 9 -15
4 -15 -5 0 -10 -12 -10 -27 -2 -55 -12 -124 -18 -130 -3 -3 0 -13 7 -21 10
-13 9 -14 -1 -8 -7 4 -20 2 -29 -6 -14 -11 -16 -11 -8 2 8 13 7 13 -8 1 -14
-11 -17 -11 -17 0 0 11 -2 11 -8 1 -5 -8 -16 -10 -27 -6 -14 6 -16 4 -10 -7 7
-12 6 -12 -7 -1 -13 10 -17 10 -22 -5 -6 -15 -8 -15 -16 -3 -9 13 -10 13 -10
0 0 -9 -3 -11 -8 -5 -9 12 -44 16 -36 4 3 -5 -13 -9 -35 -9 -26 0 -41 -5 -41
-12 0 -9 -4 -8 -10 2 -9 13 -10 13 -10 0 0 -12 -2 -12 -9 -1 -6 9 -11 10 -15
2 -4 -6 -12 -9 -17 -6 -5 4 -9 1 -9 -4 0 -6 -5 -11 -11 -11 -5 0 -7 5 -3 12 5
8 2 9 -12 4 -10 -4 -23 -9 -29 -10 -5 -1 -16 -6 -24 -11 -10 -5 -16 -4 -19 3
-2 7 -7 10 -12 7 -10 -6 -8 15 3 33 5 7 3 12 -5 12 -9 0 -9 3 2 10 13 9 13 10
0 10 -10 0 -11 3 -4 8 6 4 10 15 8 25 -1 9 2 17 8 17 6 0 5 6 -2 15 -8 10 -9
15 -1 15 6 0 9 13 7 30 -2 16 -1 32 2 35 5 5 7 22 13 108 1 15 6 30 11 33 4 3
4 14 -2 24 -7 12 -7 21 0 25 5 3 8 19 6 35 -2 18 1 30 8 30 6 0 4 5 -4 10 -10
6 -11 10 -3 10 8 0 11 11 9 30 -2 16 -1 32 2 35 3 3 7 20 8 38 2 45 13 107 21
120 3 5 2 7 -4 4 -11 -7 -11 29 0 39 4 4 7 23 7 43 0 20 4 43 10 51 6 9 5 17
-2 21 -9 6 -8 12 2 24 12 14 12 18 -1 26 -10 6 -11 9 -1 9 7 0 10 5 7 10 -3 6
-2 10 2 10 5 0 8 17 7 37 -1 21 1 42 4 48 10 15 8 38 -3 54 -8 12 -7 13 4 6
11 -6 13 -3 9 13 -4 13 -1 22 5 22 7 0 5 5 -3 10 -12 7 -12 10 -1 10 8 0 11 6
7 16 -4 9 -1 23 5 30 9 11 8 14 -2 14 -11 0 -11 2 1 10 12 8 12 10 1 10 -11 0
-11 3 -1 15 7 8 10 26 8 40 -3 14 -2 25 2 25 4 0 6 10 5 23 -1 12 2 30 6 39 6
10 5 19 -1 23 -8 5 -7 11 1 21 6 7 9 21 5 29 -3 8 -2 15 2 15 4 0 8 17 9 38 2
49 8 86 18 102 5 9 4 11 -4 6 -9 -6 -10 0 -5 20 4 16 7 35 7 44 0 8 4 21 10
28 6 8 6 12 -3 12 -9 0 -9 4 -2 13 5 6 8 24 6 40 -1 15 1 25 7 21 13 -7 7 19
-6 28 -6 5 -6 8 2 8 6 0 10 8 9 18 -2 9 2 20 8 24 8 6 7 8 -1 8 -9 0 -10 7 -4
23 4 12 6 28 4 35 -3 6 0 12 7 12 7 0 8 6 0 19 -12 24 -13 34 -1 27 5 -3 9 7
9 22 0 72 12 156 23 162 8 6 8 9 0 14 -6 4 -11 12 -11 17 0 6 6 7 13 3 8 -5 8
-2 -2 9 -9 11 -10 17 -2 17 7 0 9 9 5 26 -6 21 -4 25 7 19 11 -6 12 -5 2 5
-10 11 -9 16 5 27 9 8 12 12 6 9 -7 -4 -11 7 -10 29 0 19 6 35 11 35 6 0 3 5
-5 10 -8 5 -10 10 -4 10 6 0 10 17 10 40 -1 22 2 40 6 40 4 0 5 10 3 22 -3 12
0 27 6 35 9 9 8 13 0 13 -8 0 -9 5 -2 19 6 10 9 28 6 40 -2 11 0 23 4 25 4 3
7 20 6 38 -1 18 2 39 8 46 6 8 5 12 -4 12 -9 0 -10 3 -4 8 6 4 11 18 12 32 1
14 4 42 6 63 3 20 1 37 -5 37 -5 0 -6 4 -3 10 4 6 -6 8 -23 6 l-28 -3 8 66 c4
36 10 84 13 106 3 22 7 62 11 90 7 58 13 72 25 54 6 -10 11 -11 17 -3 4 6 26
10 50 10 23 -1 42 3 42 8 0 5 7 3 15 -4 11 -9 15 -9 15 -1 0 7 5 9 10 6 6 -3
10 -1 10 6 0 7 7 4 15 -7 8 -10 15 -14 15 -8 0 11 62 10 80 -1 6 -3 10 -2 10
3 0 5 20 6 45 2 30 -5 45 -3 45 4 0 6 5 4 10 -4 5 -8 10 -10 10 -5 0 6 5 3 10
-5 6 -10 10 -11 10 -2 0 6 7 12 16 12 9 0 12 -5 8 -12 -5 -7 -3 -8 6 -3 20 12
80 13 80 1 0 -6 5 -4 10 4 5 8 10 11 10 5 0 -12 70 -13 88 -1 7 4 12 3 12 -3
0 -10 40 -8 58 3 6 3 13 2 17 -4 3 -5 11 -10 16 -10 6 0 8 4 5 8 -7 11 31 8
41 -3 5 -4 2 -5 -6 0 -10 6 -12 4 -6 -4 5 -9 11 -9 17 -3 6 6 17 8 26 5 11 -5
13 -3 7 7 -6 9 -4 11 5 5 17 -11 81 -15 95 -7 15 10 39 8 48 -3 5 -7 10 -7 15
0 11 15 42 18 42 4 0 -8 4 -8 15 1 8 6 19 9 24 6 5 -4 13 -2 16 4 5 8 11 8 20
0 10 -8 15 -8 20 0 5 8 10 8 20 0 9 -8 17 -6 29 5 12 12 16 13 16 3 0 -10 3
-9 10 2 5 8 10 11 10 7 0 -5 6 -5 13 0 6 4 23 6 36 4 15 -2 21 1 17 8 -4 6 -2
11 3 11 6 0 11 -5 11 -10 0 -6 10 -4 23 5 13 8 27 12 30 8 4 -3 7 -1 7 5 0 6
8 10 18 9 10 0 19 -7 19 -14z m-2442 -153 c-3 -5 -2 -10 3 -10 14 0 9 -54 -6
-63 -10 -7 -10 -12 -2 -22 7 -8 8 -20 4 -27 -8 -13 -9 -18 -12 -71 -1 -19 -6
-26 -14 -21 -7 5 -8 3 -2 -7 12 -20 14 -40 3 -33 -9 5 -12 -9 -12 -48 0 -10
-4 -18 -8 -18 -5 0 -9 -9 -9 -21 0 -13 -4 -18 -12 -13 -8 5 -9 2 -5 -9 4 -11
-1 -20 -13 -27 -11 -6 -17 -16 -14 -25 4 -10 0 -15 -11 -15 -9 0 -13 -4 -10
-10 3 -5 2 -10 -4 -10 -5 0 -16 -2 -23 -5 -12 -5 -13 7 -2 82 21 156 66 284
125 356 22 27 36 37 24 17z m-1393 -68 c4 10 9 10 23 -2 10 -8 16 -10 12 -3
-8 13 62 11 84 -3 8 -4 10 -3 5 5 -8 12 33 9 55 -5 8 -4 9 -3 5 4 -9 16 7 15
22 0 9 -9 12 -9 12 0 0 7 5 12 11 12 5 0 8 -3 6 -7 -3 -5 28 -8 69 -7 44 1 71
-3 67 -9 -3 -5 4 -4 16 3 15 8 26 8 34 1 8 -6 18 -6 27 -1 9 5 19 5 27 -2 8
-6 13 -6 13 -1 0 5 7 10 15 10 8 0 15 -5 15 -10 0 -5 8 -3 17 4 15 12 16 12 8
-1 -8 -13 -7 -13 8 -1 14 11 17 11 17 0 0 -11 2 -11 10 1 8 12 10 12 10 1 0
-11 3 -11 15 -1 12 10 15 10 15 -1 0 -11 2 -11 10 1 9 13 10 13 10 0 0 -13 1
-13 10 0 8 12 10 12 10 1 0 -11 3 -11 15 -1 12 10 15 10 15 -1 0 -11 2 -11 10
1 8 13 10 13 10 0 0 -11 3 -11 12 -2 8 8 15 9 25 1 9 -8 13 -8 13 0 0 6 5 11
11 11 5 0 7 -5 3 -11 -4 -8 0 -8 15 0 31 17 35 -3 16 -75 -21 -76 -22 -79 -31
-144 -4 -30 -8 -59 -9 -65 -1 -5 -3 -39 -3 -74 -2 -52 -4 -61 -15 -52 -8 6
-17 8 -20 4 -4 -3 -13 0 -21 6 -10 8 -16 9 -21 1 -3 -5 -11 -10 -16 -10 -6 0
-8 4 -5 8 3 5 -1 9 -9 9 -8 0 -15 -5 -15 -11 0 -6 -4 -4 -10 4 -5 8 -12 11
-16 8 -4 -4 -16 -3 -27 3 -14 8 -18 8 -13 0 4 -6 2 -11 -3 -11 -6 0 -11 4 -11
8 0 5 -13 7 -30 6 -17 -1 -30 3 -30 9 0 7 -5 5 -10 -3 -5 -8 -10 -10 -10 -4 0
7 -11 14 -25 16 -13 3 -22 1 -19 -3 8 -13 -10 -11 -24 3 -8 8 -12 8 -12 1 0
-6 -6 -10 -12 -9 -7 0 -13 -1 -14 -4 0 -3 -6 -15 -12 -27 -9 -16 -9 -24 -1
-29 9 -5 6 -11 -6 -21 -12 -8 -14 -13 -6 -13 11 0 11 -3 0 -17 -12 -15 -12
-16 1 -8 12 7 13 6 3 -6 -6 -8 -10 -31 -9 -52 1 -27 -2 -36 -12 -32 -8 3 -10
0 -5 -8 10 -16 11 -67 1 -73 -4 -3 -8 -10 -8 -15 0 -6 5 -7 11 -3 6 3 5 -4 -3
-17 -8 -13 -13 -36 -12 -51 0 -16 -4 -28 -10 -28 -6 0 -5 -4 3 -9 12 -8 12
-12 2 -25 -7 -9 -11 -21 -9 -28 3 -7 2 -22 -2 -33 -4 -11 -3 -25 2 -32 6 -7 5
-14 -3 -19 -8 -5 -9 -3 -4 6 6 9 4 11 -4 5 -9 -5 -10 -10 -2 -18 7 -7 7 -16 0
-29 -7 -13 -6 -18 3 -18 8 0 5 -5 -5 -11 -14 -8 -15 -14 -7 -24 8 -10 8 -15 0
-20 -8 -5 -8 -11 1 -21 9 -11 9 -14 0 -14 -8 0 -10 -11 -7 -30 2 -16 1 -30 -3
-30 -3 0 -7 -23 -9 -51 -1 -28 -5 -56 -9 -62 -10 -17 -11 -47 -1 -53 5 -3 4
-12 -3 -20 -6 -7 -9 -21 -5 -29 3 -8 0 -15 -7 -15 -8 0 -6 -4 3 -10 8 -5 10
-10 4 -10 -7 0 -15 -7 -18 -16 -3 -8 -2 -12 4 -9 5 3 8 -4 7 -15 -1 -11 -6
-20 -12 -20 -5 0 -3 -5 5 -10 8 -5 10 -10 4 -10 -6 0 -10 -10 -9 -22 1 -13 -3
-26 -9 -30 -8 -5 -7 -11 1 -19 9 -9 10 -16 2 -26 -7 -7 -8 -13 -3 -13 5 0 2
-5 -6 -10 -12 -8 -12 -10 -1 -10 11 0 11 -3 1 -15 -10 -12 -10 -15 1 -15 12 0
12 -2 0 -9 -8 -5 -11 -16 -8 -25 4 -9 2 -16 -2 -16 -5 0 -7 -9 -4 -20 3 -11
-1 -28 -8 -37 -11 -13 -11 -17 -1 -20 6 -3 9 -10 5 -16 -8 -12 -10 -30 -14
-89 -1 -22 -6 -35 -12 -31 -6 4 -7 1 -1 -8 11 -18 12 -41 1 -56 -5 -7 -6 -17
-2 -23 3 -5 0 -10 -7 -10 -9 0 -9 -3 2 -10 12 -8 12 -10 1 -10 -10 0 -11 -3
-2 -14 9 -10 8 -16 -4 -26 -11 -9 -12 -17 -5 -30 7 -13 7 -21 -1 -26 -6 -3 -9
-19 -7 -35 3 -16 2 -29 -2 -29 -3 0 -5 -12 -4 -27 0 -16 -4 -31 -10 -35 -8 -5
-7 -8 2 -8 10 0 10 -5 2 -20 -6 -11 -8 -25 -5 -30 3 -6 1 -10 -6 -10 -10 0
-10 -3 -1 -12 7 -7 8 -17 1 -30 -5 -10 -7 -18 -3 -18 3 0 2 -6 -4 -13 -7 -8
-7 -18 -2 -27 5 -8 5 -19 0 -25 -5 -6 -8 -20 -6 -30 2 -11 -4 -26 -13 -33 -9
-8 -10 -11 -3 -7 14 7 13 -29 -1 -52 -5 -8 -3 -13 3 -13 6 0 8 -5 3 -12 -4 -7
-8 -25 -9 -41 -1 -15 -4 -30 -7 -34 -4 -3 -2 -12 4 -20 9 -10 8 -13 -1 -13 -7
0 -10 -6 -7 -14 3 -8 3 -17 -1 -21 -10 -10 -8 -39 3 -47 6 -5 5 -8 -2 -8 -8 0
-13 -13 -13 -30 0 -17 -5 -30 -12 -30 -9 0 -9 -3 1 -9 12 -8 12 -12 2 -25 -11
-13 -11 -16 0 -16 8 0 5 -6 -7 -15 -19 -15 -19 -15 1 -8 19 6 19 6 2 -14 -11
-13 -14 -23 -8 -27 7 -4 7 -15 1 -30 -5 -13 -6 -27 -2 -31 3 -3 0 -10 -8 -16
-10 -5 -11 -12 -5 -17 14 -10 18 -35 4 -26 -8 4 -9 0 -4 -16 6 -17 4 -21 -6
-14 -12 6 -12 5 0 -9 7 -9 9 -17 4 -17 -6 0 -9 -13 -7 -30 2 -19 -1 -30 -9
-30 -9 0 -8 -3 1 -9 17 -10 17 -22 1 -32 -10 -6 -10 -11 2 -25 9 -11 9 -15 2
-10 -13 7 -15 -2 -16 -61 0 -13 -4 -23 -9 -23 -5 0 -7 -4 -4 -8 2 -4 -7 -9
-20 -10 -14 -1 -34 -6 -44 -12 -13 -7 -21 -7 -26 1 -4 8 -9 8 -17 0 -7 -7 -15
-7 -26 2 -12 10 -13 9 -6 -2 6 -11 4 -13 -8 -8 -10 3 -17 2 -17 -4 0 -6 -5 -7
-10 -4 -6 4 -18 1 -27 -7 -12 -9 -15 -9 -9 -1 4 7 3 13 -3 13 -5 0 -13 -5 -17
-11 -4 -8 -9 -7 -15 2 -5 8 -9 9 -9 3 0 -6 -6 -11 -12 -11 -51 -4 -74 -9 -80
-18 -5 -6 -8 -5 -8 3 0 9 -5 10 -17 4 -10 -5 -33 -9 -51 -8 -17 0 -32 -3 -32
-8 0 -5 -8 -2 -17 5 -10 8 -14 9 -10 2 4 -6 3 -14 -3 -18 -5 -3 -10 -2 -10 4
0 6 -7 8 -15 5 -17 -7 -21 11 -5 21 7 4 7 13 1 24 -7 13 -5 25 6 41 9 13 11
20 4 16 -14 -9 -5 41 13 63 8 11 8 13 -1 7 -16 -9 -17 8 -3 34 7 13 7 21 0 25
-8 5 -7 11 0 20 7 8 9 19 5 25 -3 5 -2 10 3 10 5 0 8 14 6 30 -2 17 1 30 6 30
6 0 10 5 10 11 0 5 -4 8 -9 5 -10 -7 -9 20 1 30 4 3 4 12 1 20 -3 8 1 14 8 14
11 0 11 3 -1 10 -11 7 -12 10 -2 10 9 0 11 7 7 20 -4 12 -1 28 7 37 11 14 11
16 -2 8 -12 -6 -13 -5 -3 5 10 11 10 17 0 29 -10 12 -9 13 2 6 11 -6 13 -4 8
8 -4 10 -1 17 6 18 9 0 9 2 0 6 -8 3 -10 11 -5 21 4 9 7 26 7 37 0 11 4 23 10
27 6 5 5 11 -4 17 -8 5 -10 14 -5 22 10 16 14 34 16 72 0 15 5 27 10 27 4 0 8
5 8 11 0 5 -4 8 -8 5 -10 -6 -9 24 0 40 4 5 5 22 4 37 -2 19 1 27 13 27 9 0
12 3 6 8 -14 10 -18 39 -6 46 5 3 7 15 4 26 -3 12 0 20 6 20 7 0 9 5 5 12 -13
21 -11 47 3 52 10 4 11 11 4 24 -7 13 -6 23 2 32 9 10 9 11 -1 5 -12 -6 -12
-3 -1 16 7 13 12 25 11 27 -1 1 -2 18 -2 38 0 25 4 33 13 28 9 -5 9 -4 0 6 -9
9 -9 19 -2 33 6 11 7 17 2 14 -5 -3 -9 3 -9 13 0 10 4 16 10 13 5 -3 7 5 4 21
-3 14 -2 26 2 26 4 0 6 12 4 27 -1 15 3 31 9 36 9 6 9 10 -1 14 -10 4 -10 8 0
21 10 12 10 16 1 19 -10 4 -9 9 3 20 13 13 13 17 2 24 -10 7 -10 9 1 9 8 0 11
3 8 7 -4 3 -2 12 4 19 7 8 7 14 -1 19 -6 3 -7 12 -3 18 6 11 14 74 14 120 0 9
3 17 7 17 4 0 8 11 8 25 1 14 -2 23 -6 20 -5 -3 -7 2 -6 11 1 8 9 20 17 25 12
7 12 9 -1 9 -9 0 -11 3 -5 8 9 6 15 49 17 114 0 15 4 26 8 23 4 -2 5 14 3 36
-3 29 -1 39 7 34 9 -6 9 -2 2 12 -6 11 -7 25 -2 33 5 8 6 18 4 22 -3 4 0 8 7
8 7 0 5 6 -6 14 -18 13 -18 14 4 25 18 10 20 15 10 27 -9 11 -9 17 1 29 10 12
10 15 0 15 -8 0 -9 4 -3 13 9 11 14 49 16 115 1 12 5 22 11 22 6 0 5 5 -2 12
-8 8 -8 17 -1 30 5 10 7 23 4 28 -3 5 -1 11 4 14 5 3 7 16 3 28 -3 13 -1 19 5
15 5 -3 10 0 10 8 0 8 -3 15 -7 15 -9 0 -6 32 4 48 4 7 5 19 2 27 -3 8 0 15 7
15 8 0 6 4 -3 10 -12 8 -12 10 5 10 15 0 17 2 6 9 -10 7 -11 13 -2 30 7 11 8
21 3 21 -5 0 -9 7 -9 15 0 8 4 12 8 10 4 -3 7 10 8 28 1 41 4 58 15 76 6 10 5
12 -2 7 -16 -9 -15 7 0 22 7 7 8 12 4 12 -5 0 -2 8 5 17 10 11 10 14 2 9 -8
-4 -13 -1 -13 9 0 9 4 14 9 11 4 -3 6 6 3 19 -2 14 2 33 9 42 10 12 10 14 2 9
-16 -9 -17 6 -1 22 9 9 9 12 -2 12 -13 0 -13 2 0 10 12 8 12 10 -3 16 -9 3
-15 10 -12 14 3 4 -6 7 -20 6 -14 0 -25 -5 -25 -11 0 -5 -5 -2 -11 8 -7 12 -7
41 1 95 6 42 13 91 15 107 12 97 18 125 27 125 5 0 6 6 2 13 -5 8 -2 8 9 -2
13 -10 17 -10 17 -1 0 10 3 10 14 1 11 -9 16 -9 21 0 6 8 10 7 16 -2 7 -12 9
-12 9 0 0 8 7 11 19 8 10 -2 25 -1 32 4 7 4 19 3 25 -2 8 -7 13 -6 16 3z
m1769 -131 c-9 -6 -10 -11 -2 -15 6 -4 9 -11 6 -16 -3 -4 -7 -25 -10 -46 -2
-22 -7 -59 -10 -84 -2 -25 -7 -61 -10 -80 -2 -19 -7 -60 -10 -90 -3 -30 -7
-68 -10 -85 -2 -16 -7 -50 -10 -75 -2 -25 -7 -65 -10 -90 -4 -25 -8 -61 -10
-80 -5 -50 -14 -124 -25 -205 -5 -38 -12 -94 -16 -124 -3 -30 -7 -62 -9 -72
-4 -20 -17 -137 -18 -157 0 -8 -4 -9 -10 -3 -5 5 -16 7 -24 4 -8 -3 -13 0 -11
8 2 8 -3 13 -10 11 -7 -1 -15 5 -18 13 -3 8 -10 12 -15 9 -5 -3 -13 5 -18 18
-6 13 -10 19 -11 13 -1 -5 -5 1 -9 15 -4 14 -13 24 -20 22 -8 -2 -10 4 -6 18
3 11 3 20 -2 20 -4 0 -13 11 -20 25 -6 14 -7 23 -2 19 5 -3 9 0 9 5 0 6 -5 11
-12 11 -6 0 -8 3 -5 7 4 3 2 12 -4 20 -9 10 -8 13 1 13 8 0 9 4 3 13 -5 6 -8
24 -7 40 2 15 0 27 -4 27 -4 0 -8 9 -8 20 0 11 4 20 8 20 4 0 3 11 -2 25 -7
18 -6 25 3 26 9 0 9 2 0 6 -9 3 -10 10 -3 24 8 14 7 19 -1 19 -7 0 -8 7 -4 18
4 9 9 44 11 76 2 33 10 63 17 68 7 4 8 8 1 8 -9 0 -11 31 -4 50 1 3 2 8 1 13
0 4 4 7 10 7 5 0 8 4 4 9 -3 5 0 13 6 17 8 4 7 9 -2 15 -11 7 -11 9 -1 9 7 0
11 4 7 9 -3 5 -1 12 5 16 6 4 8 11 5 16 -4 5 -2 9 4 9 5 0 8 11 7 25 -2 13 1
23 7 22 5 -1 11 9 13 23 3 13 8 27 12 30 13 9 33 52 28 57 -3 3 7 17 22 31 15
13 21 21 15 18 -9 -5 -11 -2 -7 8 3 9 11 13 17 9 6 -4 8 0 4 10 -4 10 -2 16 5
14 7 -1 12 3 13 8 0 6 9 20 20 32 11 12 43 47 70 77 28 31 55 56 60 56 6 0 4
-4 -4 -9z m634 -113 c-2 -13 -6 -48 -10 -79 -3 -31 -8 -67 -10 -80 -3 -13 -6
-38 -7 -55 -1 -18 -6 -30 -10 -28 -5 3 -7 8 -4 12 2 4 7 32 10 62 13 112 21
175 25 188 1 1 3 2 5 2 3 0 3 -10 1 -22z m-3339 -102 c-6 -25 -22 -135 -31
-221 -3 -27 -7 -63 -10 -80 -7 -46 -15 -101 -20 -153 -3 -26 -7 -60 -10 -77
-2 -16 -7 -52 -10 -80 -4 -27 -8 -61 -11 -75 -2 -14 -6 -50 -10 -80 -3 -30 -7
-62 -9 -70 -2 -8 -7 -42 -11 -75 -3 -33 -8 -69 -10 -80 -2 -11 -7 -47 -10 -80
-4 -33 -8 -67 -9 -75 -13 -88 -19 -136 -17 -142 3 -14 -29 -17 -34 -3 -4 8
-10 12 -15 9 -5 -3 -9 0 -9 7 0 7 -3 9 -7 6 -3 -4 -12 1 -20 11 -8 9 -12 11
-8 5 4 -9 1 -11 -9 -7 -9 3 -13 10 -10 15 3 5 -2 12 -10 15 -9 3 -16 13 -16
21 0 8 -4 11 -10 8 -6 -4 -10 6 -10 22 0 22 -2 25 -10 13 -8 -12 -10 -11 -10
8 0 12 0 25 1 28 0 4 -5 10 -11 14 -7 4 -13 19 -13 34 -1 14 -5 26 -8 26 -4 0
-10 7 -13 16 -4 10 -2 13 6 8 8 -5 9 -2 5 10 -4 10 -7 24 -7 32 0 9 -5 12 -12
8 -7 -5 -8 -3 -2 7 12 20 14 38 3 45 -5 3 -5 13 1 25 6 10 7 19 2 19 -4 0 -8
9 -8 19 0 11 4 17 8 15 4 -3 8 0 8 5 0 6 -6 11 -12 11 -9 0 -8 4 2 10 8 5 10
10 5 10 -6 0 -11 9 -12 20 -1 11 1 19 5 16 4 -2 8 7 8 20 1 15 -2 21 -10 17
-8 -5 -8 -3 0 8 6 8 10 22 9 32 -2 9 2 17 8 17 7 0 5 5 -3 10 -9 6 -10 10 -3
10 7 0 10 10 7 26 -3 14 -1 23 3 21 10 -6 10 34 0 50 -4 7 -2 15 4 19 8 4 9 3
5 -4 -4 -7 -3 -12 2 -12 5 0 12 9 15 20 3 11 1 18 -4 14 -12 -7 -11 1 1 26 6
11 15 29 20 40 6 12 8 25 5 30 -4 6 -1 10 5 10 6 0 9 4 5 9 -3 5 -1 12 5 16 6
4 8 11 5 16 -4 5 -1 9 4 9 6 0 10 3 9 8 -3 10 34 86 46 94 6 4 12 12 12 18 1
5 2 15 3 21 0 5 6 7 13 3 8 -5 9 0 6 14 -4 13 -2 20 4 16 5 -3 12 3 15 15 3
11 9 19 13 16 5 -3 11 -1 15 5 3 5 0 10 -7 10 -10 0 -9 3 2 9 8 6 18 7 22 5 5
-3 7 -2 6 3 -1 4 1 18 6 30 5 15 12 20 24 16 9 -3 14 -3 10 2 -4 4 0 14 10 22
9 8 11 11 3 7 -9 -5 -12 -3 -7 4 4 7 16 12 27 12 10 0 19 5 19 11 0 5 -5 7
-12 3 -7 -4 -8 -3 -4 4 4 7 16 12 26 12 13 0 17 5 14 15 -5 11 -2 13 10 9 9
-3 16 -1 16 5 0 6 3 11 6 11 3 0 3 -11 0 -24z m3314 -160 c0 -3 -4 -8 -10 -11
-5 -3 -10 -1 -10 4 0 6 5 11 10 11 6 0 10 -2 10 -4z m-7 -63 c-8 -19 -22 -16
-18 5 2 9 4 22 4 27 1 6 5 4 10 -4 5 -8 7 -20 4 -28z m-13 -54 c-5 -18 -7 -36
-4 -40 3 -5 0 -17 -6 -26 -8 -14 -9 -6 -5 31 5 45 11 66 20 66 2 0 0 -14 -5
-31z m-7 -96 c-7 -2 -14 -21 -14 -41 -2 -32 -3 -33 -6 -9 -5 35 2 57 19 56 10
0 10 -2 1 -6z m-17 -113 c0 -16 -4 -30 -8 -30 -10 0 -10 22 -2 44 9 23 12 20
10 -14z m-12 -87 c-4 -27 -7 -53 -7 -60 0 -7 -4 -10 -8 -8 -4 3 -3 22 2 42 4
21 8 39 9 41 0 1 0 9 0 17 0 8 2 15 5 15 3 0 3 -21 -1 -47z m-11 -123 c-8 -30
-21 -34 -15 -5 2 14 8 25 12 25 5 0 6 -9 3 -20z m-3 -50 c0 -5 -4 -10 -10 -10
-5 0 -10 5 -10 10 0 6 5 10 10 10 6 0 10 -4 10 -10z m-13 -55 c-1 -19 -5 -35
-9 -35 -5 0 -6 10 -4 23 3 12 5 28 5 35 1 6 3 12 5 12 3 0 4 -16 3 -35z m-9
-80 c-1 -19 -5 -35 -9 -35 -4 0 -6 8 -4 18 2 9 4 25 4 35 1 9 3 17 6 17 2 0 4
-16 3 -35z m-5 -75 c-8 -30 -21 -34 -15 -5 2 14 8 25 12 25 5 0 6 -9 3 -20z
m-3 -50 c0 -5 -4 -10 -10 -10 -5 0 -10 5 -10 10 0 6 5 10 10 10 6 0 10 -4 10
-10z m-16 -67 c-3 -26 -7 -50 -10 -52 -6 -6 -5 51 2 77 10 37 14 25 8 -25z
m-11 -117 c3 -8 0 -17 -7 -19 -10 -4 -12 1 -9 14 6 23 9 24 16 5z m-9 -63 c-7
-49 -10 -62 -16 -68 -6 -6 0 60 7 83 8 22 12 13 9 -15z m-4 -90 c0 -5 -5 -15
-10 -23 -8 -12 -10 -11 -10 8 0 12 5 22 10 22 6 0 10 -3 10 -7z m-16 -88 c-4
-8 -8 -15 -10 -15 -2 0 -4 7 -4 15 0 8 4 15 10 15 5 0 7 -7 4 -15z m-11 -87
c-3 -18 -7 -40 -8 -48 -2 -8 -4 -23 -4 -32 -1 -10 -6 -18 -12 -18 -5 0 -8 4
-5 9 7 11 19 81 18 104 0 9 3 17 8 17 4 0 6 -15 3 -32z m-18 -150 c-4 -18 -8
-35 -11 -38 -3 -2 -3 9 0 25 2 17 5 33 5 38 1 4 3 7 6 7 3 0 3 -14 0 -32z
m-11 -80 c-4 -18 -7 -41 -6 -50 0 -10 -3 -20 -7 -23 -5 -2 -7 6 -6 19 5 40 16
86 22 86 2 0 1 -15 -3 -32z m-11 -118 c-7 -27 -13 -25 -11 4 1 14 5 23 9 20 4
-2 5 -13 2 -24z m-8 -60 c3 -5 1 -10 -4 -10 -6 0 -11 5 -11 10 0 6 2 10 4 10
3 0 8 -4 11 -10z m-5 -54 c0 -3 -4 -8 -10 -11 -5 -3 -10 -1 -10 4 0 6 5 11 10
11 6 0 10 -2 10 -4z m-6 -41 c-4 -8 -8 -15 -10 -15 -2 0 -4 7 -4 15 0 8 4 15
10 15 5 0 7 -7 4 -15z m-11 -62 c-3 -21 -7 -40 -10 -43 -5 -6 -1 61 5 73 8 16
10 5 5 -30z m-3 -77 c0 -3 -4 -8 -10 -11 -5 -3 -10 -1 -10 4 0 6 5 11 10 11 6
0 10 -2 10 -4z"/>
</g>
</svg>
